<svg width="20" height="20" viewBox="0 0 20 20" fill="none" xmlns="http://www.w3.org/2000/svg">
<path d="M10 0C8.02219 0 6.08879 0.58649 4.4443 1.6853C2.79981 2.78412 1.51809 4.3459 0.761209 6.17317C0.00433286 8.00043 -0.193701 10.0111 0.192152 11.9509C0.578004 13.8907 1.53041 15.6725 2.92894 17.0711C4.32746 18.4696 6.10929 19.422 8.0491 19.8079C9.98891 20.1937 11.9996 19.9957 13.8268 19.2388C15.6541 18.4819 17.2159 17.2002 18.3147 15.5557C19.4135 13.9112 20 11.9778 20 10C20 7.34784 18.9464 4.8043 17.0711 2.92893C15.1957 1.05357 12.6522 0 10 0V0ZM10 18.3333C8.35183 18.3333 6.74066 17.8446 5.37025 16.9289C3.99984 16.0132 2.93174 14.7117 2.30101 13.189C1.67028 11.6663 1.50525 9.99076 1.82679 8.37425C2.14834 6.75774 2.94201 5.27288 4.10745 4.10744C5.27289 2.94201 6.75774 2.14833 8.37425 1.82679C9.99076 1.50525 11.6663 1.67027 13.189 2.301C14.7118 2.93173 16.0132 3.99984 16.9289 5.37025C17.8446 6.74066 18.3333 8.35182 18.3333 10C18.3333 11.0943 18.1178 12.178 17.699 13.189C17.2802 14.2001 16.6664 15.1187 15.8926 15.8926C15.1187 16.6664 14.2001 17.2802 13.189 17.699C12.178 18.1178 11.0944 18.3333 10 18.3333V18.3333Z" fill="#FF5C38"/>
<path fill-rule="evenodd" clip-rule="evenodd" d="M13.8531 6.14687C13.8997 6.1933 13.9366 6.24847 13.9618 6.3092C13.987 6.36993 14 6.43504 14 6.5008C14 6.56655 13.987 6.63166 13.9618 6.6924C13.9366 6.75313 13.8997 6.80829 13.8531 6.85473L6.85447 13.8534C6.7606 13.9473 6.63329 14 6.50054 14C6.36779 14 6.24047 13.9473 6.1466 13.8534C6.05273 13.7595 6 13.6322 6 13.4995C6 13.3667 6.05273 13.2394 6.1466 13.1455L13.1453 6.14687C13.1917 6.10031 13.2469 6.06338 13.3076 6.03817C13.3683 6.01297 13.4334 6 13.4992 6C13.565 6 13.6301 6.01297 13.6908 6.03817C13.7515 6.06338 13.8067 6.10031 13.8531 6.14687Z" fill="#FF5C38"/>
<path fill-rule="evenodd" clip-rule="evenodd" d="M6.14687 6.14687C6.10031 6.1933 6.06338 6.24847 6.03817 6.3092C6.01297 6.36993 6 6.43504 6 6.5008C6 6.56655 6.01297 6.63166 6.03817 6.6924C6.06338 6.75313 6.10031 6.80829 6.14687 6.85473L13.1455 13.8534C13.2394 13.9473 13.3667 14 13.4995 14C13.6322 14 13.7595 13.9473 13.8534 13.8534C13.9473 13.7595 14 13.6322 14 13.4995C14 13.3667 13.9473 13.2394 13.8534 13.1455L6.85473 6.14687C6.80829 6.10031 6.75313 6.06338 6.6924 6.03817C6.63166 6.01297 6.56655 6 6.5008 6C6.43504 6 6.36993 6.01297 6.3092 6.03817C6.24847 6.06338 6.1933 6.10031 6.14687 6.14687V6.14687Z" fill="#FF5C38"/>
</svg>
